G04 #@! TF.GenerationSoftware,KiCad,Pcbnew,6.0.2+dfsg-1*
G04 #@! TF.CreationDate,2024-08-10T18:00:16+02:00*
G04 #@! TF.ProjectId,rgb-board,7267622d-626f-4617-9264-2e6b69636164,rev?*
G04 #@! TF.SameCoordinates,Original*
G04 #@! TF.FileFunction,Paste,Top*
G04 #@! TF.FilePolarity,Positive*
%FSLAX46Y46*%
G04 Gerber Fmt 4.6, Leading zero omitted, Abs format (unit mm)*
G04 Created by KiCad (PCBNEW 6.0.2+dfsg-1) date 2024-08-10 18:00:16*
%MOMM*%
%LPD*%
G01*
G04 APERTURE LIST*
G04 Aperture macros list*
%AMRoundRect*
0 Rectangle with rounded corners*
0 $1 Rounding radius*
0 $2 $3 $4 $5 $6 $7 $8 $9 X,Y pos of 4 corners*
0 Add a 4 corners polygon primitive as box body*
4,1,4,$2,$3,$4,$5,$6,$7,$8,$9,$2,$3,0*
0 Add four circle primitives for the rounded corners*
1,1,$1+$1,$2,$3*
1,1,$1+$1,$4,$5*
1,1,$1+$1,$6,$7*
1,1,$1+$1,$8,$9*
0 Add four rect primitives between the rounded corners*
20,1,$1+$1,$2,$3,$4,$5,0*
20,1,$1+$1,$4,$5,$6,$7,0*
20,1,$1+$1,$6,$7,$8,$9,0*
20,1,$1+$1,$8,$9,$2,$3,0*%
G04 Aperture macros list end*
%ADD10R,0.800000X1.900000*%
%ADD11RoundRect,0.250000X1.412500X0.550000X-1.412500X0.550000X-1.412500X-0.550000X1.412500X-0.550000X0*%
%ADD12RoundRect,0.250000X-0.650000X0.412500X-0.650000X-0.412500X0.650000X-0.412500X0.650000X0.412500X0*%
%ADD13RoundRect,0.250000X-1.075000X-0.550000X1.075000X-0.550000X1.075000X0.550000X-1.075000X0.550000X0*%
%ADD14RoundRect,0.250000X0.412500X0.650000X-0.412500X0.650000X-0.412500X-0.650000X0.412500X-0.650000X0*%
%ADD15RoundRect,0.250000X1.075000X0.550000X-1.075000X0.550000X-1.075000X-0.550000X1.075000X-0.550000X0*%
%ADD16R,0.900000X1.200000*%
%ADD17RoundRect,0.250000X0.400000X0.625000X-0.400000X0.625000X-0.400000X-0.625000X0.400000X-0.625000X0*%
%ADD18RoundRect,0.250000X-0.400000X-0.625000X0.400000X-0.625000X0.400000X0.625000X-0.400000X0.625000X0*%
%ADD19RoundRect,0.250000X-0.625000X0.400000X-0.625000X-0.400000X0.625000X-0.400000X0.625000X0.400000X0*%
%ADD20RoundRect,0.250000X0.625000X-0.400000X0.625000X0.400000X-0.625000X0.400000X-0.625000X-0.400000X0*%
%ADD21RoundRect,0.250000X1.137500X0.550000X-1.137500X0.550000X-1.137500X-0.550000X1.137500X-0.550000X0*%
%ADD22RoundRect,0.250000X0.650000X-0.412500X0.650000X0.412500X-0.650000X0.412500X-0.650000X-0.412500X0*%
%ADD23R,2.000000X1.500000*%
%ADD24R,2.000000X3.800000*%
%ADD25RoundRect,0.250000X-0.412500X-0.650000X0.412500X-0.650000X0.412500X0.650000X-0.412500X0.650000X0*%
%ADD26RoundRect,0.150000X-0.825000X-0.150000X0.825000X-0.150000X0.825000X0.150000X-0.825000X0.150000X0*%
G04 APERTURE END LIST*
D10*
X139124500Y-91633000D03*
X141024500Y-91633000D03*
X140074500Y-88633000D03*
D11*
X123983500Y-91563500D03*
X118908500Y-91563500D03*
X124047000Y-107133000D03*
X118972000Y-107133000D03*
X123920000Y-122932500D03*
X118845000Y-122932500D03*
D12*
X134624500Y-87258000D03*
X134624500Y-90383000D03*
D11*
X157199500Y-91633000D03*
X152124500Y-91633000D03*
D12*
X134624500Y-102758000D03*
X134624500Y-105883000D03*
X134624500Y-118508000D03*
X134624500Y-121633000D03*
D13*
X179115500Y-132250000D03*
X182465500Y-132250000D03*
D14*
X182543500Y-137349000D03*
X179418500Y-137349000D03*
D13*
X179115500Y-126027000D03*
X182465500Y-126027000D03*
D15*
X131086500Y-142850000D03*
X127736500Y-142850000D03*
D14*
X148286500Y-149850000D03*
X145161500Y-149850000D03*
D12*
X153411500Y-141287500D03*
X153411500Y-144412500D03*
D11*
X163236500Y-141250000D03*
X158161500Y-141250000D03*
D16*
X131774500Y-118883000D03*
X128474500Y-118883000D03*
X128224500Y-126633000D03*
X131524500Y-126633000D03*
X128239000Y-80472500D03*
X131539000Y-80472500D03*
X131061500Y-149850000D03*
X127761500Y-149850000D03*
D17*
X117011500Y-145850000D03*
X113911500Y-145850000D03*
D18*
X113911500Y-149600000D03*
X117011500Y-149600000D03*
D17*
X116961500Y-142100000D03*
X113861500Y-142100000D03*
D19*
X113874500Y-91633000D03*
X113874500Y-94733000D03*
D17*
X141624500Y-95383000D03*
X138524500Y-95383000D03*
D19*
X134624500Y-92833000D03*
X134624500Y-95933000D03*
D18*
X144024500Y-87383000D03*
X147124500Y-87383000D03*
X144024500Y-95383000D03*
X147124500Y-95383000D03*
X144024500Y-91383000D03*
X147124500Y-91383000D03*
D17*
X141674500Y-110883000D03*
X138574500Y-110883000D03*
D19*
X134624500Y-108383000D03*
X134624500Y-111483000D03*
D18*
X144024500Y-102883000D03*
X147124500Y-102883000D03*
X144024500Y-106883000D03*
X147124500Y-106883000D03*
D17*
X141724500Y-126633000D03*
X138624500Y-126633000D03*
D19*
X134624500Y-124033000D03*
X134624500Y-127133000D03*
D18*
X144024500Y-118633000D03*
X147124500Y-118633000D03*
X144024500Y-126633000D03*
X147124500Y-126633000D03*
X144024500Y-122633000D03*
X147124500Y-122633000D03*
D17*
X141536500Y-80447500D03*
X138436500Y-80447500D03*
D20*
X134161500Y-148900000D03*
X134161500Y-145800000D03*
D19*
X145036500Y-141350000D03*
X145036500Y-144450000D03*
D20*
X153411500Y-150100000D03*
X153411500Y-147000000D03*
D16*
X131795500Y-87633000D03*
X128495500Y-87633000D03*
D17*
X131424500Y-91582000D03*
X128324500Y-91582000D03*
D16*
X128224500Y-95383000D03*
X131524500Y-95383000D03*
X128224500Y-110883000D03*
X131524500Y-110883000D03*
D19*
X114124500Y-107133000D03*
X114124500Y-110233000D03*
D17*
X131474500Y-107133000D03*
X128374500Y-107133000D03*
D16*
X131774500Y-103133000D03*
X128474500Y-103133000D03*
D17*
X131474500Y-122883000D03*
X128374500Y-122883000D03*
D10*
X139174500Y-107160500D03*
X141074500Y-107160500D03*
X140124500Y-104160500D03*
D18*
X144024500Y-110883000D03*
X147124500Y-110883000D03*
D10*
X139174500Y-122972000D03*
X141074500Y-122972000D03*
X140124500Y-119972000D03*
D16*
X131789000Y-72722500D03*
X128489000Y-72722500D03*
D19*
X114124500Y-122883000D03*
X114124500Y-125983000D03*
D18*
X144039000Y-72472500D03*
X147139000Y-72472500D03*
D19*
X114221500Y-76672500D03*
X114221500Y-79772500D03*
D21*
X123451500Y-76722500D03*
X119326500Y-76722500D03*
D17*
X131389000Y-76722500D03*
X128289000Y-76722500D03*
D12*
X134639000Y-72410000D03*
X134639000Y-75535000D03*
D19*
X134639000Y-77922500D03*
X134639000Y-81022500D03*
D10*
X139189000Y-76722500D03*
X141089000Y-76722500D03*
X140139000Y-73722500D03*
D22*
X120661500Y-148912500D03*
X120661500Y-145787500D03*
X124411500Y-148975000D03*
X124411500Y-145850000D03*
D20*
X141661500Y-148850000D03*
X141661500Y-145750000D03*
D12*
X137911500Y-145725000D03*
X137911500Y-148850000D03*
D10*
X148211500Y-146850000D03*
X150111500Y-146850000D03*
X149161500Y-143850000D03*
D23*
X173161500Y-134050000D03*
X173161500Y-131750000D03*
D24*
X166861500Y-131750000D03*
D23*
X173161500Y-129450000D03*
D18*
X136071500Y-51496000D03*
X139171500Y-51496000D03*
X136121500Y-43996000D03*
X139221500Y-43996000D03*
D17*
X117111500Y-52125000D03*
X114011500Y-52125000D03*
X117236500Y-62250000D03*
X114136500Y-62250000D03*
X126278000Y-60246000D03*
X123178000Y-60246000D03*
D20*
X153292500Y-47466000D03*
X153292500Y-44366000D03*
D19*
X131621500Y-45446000D03*
X131621500Y-48546000D03*
D15*
X117361500Y-43375000D03*
X114011500Y-43375000D03*
D12*
X153292500Y-50041000D03*
X153292500Y-53166000D03*
D25*
X123278000Y-56546000D03*
X126403000Y-56546000D03*
D16*
X139271500Y-47916000D03*
X135971500Y-47916000D03*
D25*
X144921000Y-56416000D03*
X148046000Y-56416000D03*
D17*
X117111500Y-48375000D03*
X114011500Y-48375000D03*
D14*
X139184000Y-55416000D03*
X136059000Y-55416000D03*
D10*
X131421500Y-60246000D03*
X133321500Y-60246000D03*
X132371500Y-57246000D03*
D26*
X122428000Y-46736000D03*
X122428000Y-48006000D03*
X122428000Y-49276000D03*
X122428000Y-50546000D03*
X122428000Y-51816000D03*
X122428000Y-53086000D03*
X122428000Y-54356000D03*
X127378000Y-54356000D03*
X127378000Y-53086000D03*
X127378000Y-51816000D03*
X127378000Y-50546000D03*
X127378000Y-49276000D03*
X127378000Y-48006000D03*
X127378000Y-46736000D03*
X143821000Y-45126000D03*
X143821000Y-46396000D03*
X143821000Y-47666000D03*
X143821000Y-48936000D03*
X143821000Y-50206000D03*
X143821000Y-51476000D03*
X143821000Y-52746000D03*
X143821000Y-54016000D03*
X148771000Y-54016000D03*
X148771000Y-52746000D03*
X148771000Y-51476000D03*
X148771000Y-50206000D03*
X148771000Y-48936000D03*
X148771000Y-47666000D03*
X148771000Y-46396000D03*
X148771000Y-45126000D03*
D15*
X117361500Y-57125000D03*
X114011500Y-57125000D03*
M02*
