%FSLAX45Y45*%
G04 Gerber Fmt 4.5, Leading zero omitted, Abs format (unit mm)*
G04 Created by KiCad (PCBNEW 6.0.2+dfsg-1) date 2024-08-10 18:00:21*
%MOMM*%
%LPD*%
G01*
G04 APERTURE LIST*
%TA.AperFunction,Profile*%
%ADD10C,0.150000*%
%TD*%
%ADD11C,0.200000*%
%ADD12C,0.250000*%
%ADD13C,0.320000*%
G04 APERTURE END LIST*
D10*
X22782500Y-16015000D02*
X8280000Y-16015000D01*
X8280000Y-16015000D02*
X8280000Y-3015000D01*
X8280000Y-3015000D02*
X22782500Y-3015000D01*
X22782500Y-3015000D02*
X22782500Y-16015000D01*
D11*
D12*
X8340000Y-6705000D02*
X8590000Y-6955000D01*
X8590000Y-6705000D02*
X8340000Y-6955000D01*
D11*
X8500000Y-6715000D02*
X8430000Y-6715000D01*
X8500000Y-6945000D02*
X8430000Y-6945000D01*
X8430000Y-6715000D02*
G75*
G03*
X8430000Y-6945000I0J-115000D01*
G01*
X8500000Y-6945000D02*
G75*
G03*
X8500000Y-6715000I0J115000D01*
G01*
D12*
X8340000Y-11835000D02*
X8590000Y-12085000D01*
X8590000Y-11835000D02*
X8340000Y-12085000D01*
D11*
X8495000Y-11845000D02*
X8435000Y-11845000D01*
X8495000Y-12075000D02*
X8435000Y-12075000D01*
X8435000Y-11845000D02*
G75*
G03*
X8435000Y-12075000I0J-115000D01*
G01*
X8495000Y-12075000D02*
G75*
G03*
X8495000Y-11845000I0J115000D01*
G01*
D13*
X9858650Y-15215000D02*
G75*
G03*
X9858650Y-15215000I-160000J0D01*
G01*
X10008650Y-9525000D02*
G75*
G03*
X10008650Y-9525000I-160000J0D01*
G01*
X10408650Y-3820000D02*
G75*
G03*
X10408650Y-3820000I-160000J0D01*
G01*
D11*
X8530119Y-16332976D02*
X8530119Y-16132976D01*
X8577738Y-16132976D01*
X8606310Y-16142500D01*
X8625357Y-16161548D01*
X8634881Y-16180595D01*
X8644405Y-16218690D01*
X8644405Y-16247262D01*
X8634881Y-16285357D01*
X8625357Y-16304405D01*
X8606310Y-16323452D01*
X8577738Y-16332976D01*
X8530119Y-16332976D01*
X8730119Y-16332976D02*
X8730119Y-16199643D01*
X8730119Y-16237738D02*
X8739643Y-16218690D01*
X8749167Y-16209167D01*
X8768214Y-16199643D01*
X8787262Y-16199643D01*
X8853929Y-16332976D02*
X8853929Y-16199643D01*
X8853929Y-16132976D02*
X8844405Y-16142500D01*
X8853929Y-16152024D01*
X8863452Y-16142500D01*
X8853929Y-16132976D01*
X8853929Y-16152024D01*
X8977738Y-16332976D02*
X8958690Y-16323452D01*
X8949167Y-16304405D01*
X8949167Y-16132976D01*
X9082500Y-16332976D02*
X9063452Y-16323452D01*
X9053929Y-16304405D01*
X9053929Y-16132976D01*
X9311071Y-16332976D02*
X9311071Y-16132976D01*
X9377738Y-16275833D01*
X9444405Y-16132976D01*
X9444405Y-16332976D01*
X9625357Y-16332976D02*
X9625357Y-16228214D01*
X9615833Y-16209167D01*
X9596786Y-16199643D01*
X9558690Y-16199643D01*
X9539643Y-16209167D01*
X9625357Y-16323452D02*
X9606310Y-16332976D01*
X9558690Y-16332976D01*
X9539643Y-16323452D01*
X9530119Y-16304405D01*
X9530119Y-16285357D01*
X9539643Y-16266309D01*
X9558690Y-16256786D01*
X9606310Y-16256786D01*
X9625357Y-16247262D01*
X9720595Y-16199643D02*
X9720595Y-16399643D01*
X9720595Y-16209167D02*
X9739643Y-16199643D01*
X9777738Y-16199643D01*
X9796786Y-16209167D01*
X9806310Y-16218690D01*
X9815833Y-16237738D01*
X9815833Y-16294881D01*
X9806310Y-16313928D01*
X9796786Y-16323452D01*
X9777738Y-16332976D01*
X9739643Y-16332976D01*
X9720595Y-16323452D01*
X9901548Y-16313928D02*
X9911071Y-16323452D01*
X9901548Y-16332976D01*
X9892024Y-16323452D01*
X9901548Y-16313928D01*
X9901548Y-16332976D01*
X9901548Y-16209167D02*
X9911071Y-16218690D01*
X9901548Y-16228214D01*
X9892024Y-16218690D01*
X9901548Y-16209167D01*
X9901548Y-16228214D01*
X8072500Y-16562500D02*
X8272500Y-16762500D01*
X8272500Y-16562500D02*
X8072500Y-16762500D01*
X8520595Y-16572024D02*
X8530119Y-16562500D01*
X8549167Y-16552976D01*
X8596786Y-16552976D01*
X8615833Y-16562500D01*
X8625357Y-16572024D01*
X8634881Y-16591071D01*
X8634881Y-16610119D01*
X8625357Y-16638690D01*
X8511071Y-16752976D01*
X8634881Y-16752976D01*
X8720595Y-16733928D02*
X8730119Y-16743452D01*
X8720595Y-16752976D01*
X8711071Y-16743452D01*
X8720595Y-16733928D01*
X8720595Y-16752976D01*
X8911071Y-16552976D02*
X8815833Y-16552976D01*
X8806310Y-16648214D01*
X8815833Y-16638690D01*
X8834881Y-16629167D01*
X8882500Y-16629167D01*
X8901548Y-16638690D01*
X8911071Y-16648214D01*
X8920595Y-16667262D01*
X8920595Y-16714881D01*
X8911071Y-16733928D01*
X8901548Y-16743452D01*
X8882500Y-16752976D01*
X8834881Y-16752976D01*
X8815833Y-16743452D01*
X8806310Y-16733928D01*
X9044405Y-16552976D02*
X9063452Y-16552976D01*
X9082500Y-16562500D01*
X9092024Y-16572024D01*
X9101548Y-16591071D01*
X9111071Y-16629167D01*
X9111071Y-16676786D01*
X9101548Y-16714881D01*
X9092024Y-16733928D01*
X9082500Y-16743452D01*
X9063452Y-16752976D01*
X9044405Y-16752976D01*
X9025357Y-16743452D01*
X9015833Y-16733928D01*
X9006310Y-16714881D01*
X8996786Y-16676786D01*
X8996786Y-16629167D01*
X9006310Y-16591071D01*
X9015833Y-16572024D01*
X9025357Y-16562500D01*
X9044405Y-16552976D01*
X9234881Y-16552976D02*
X9253929Y-16552976D01*
X9272976Y-16562500D01*
X9282500Y-16572024D01*
X9292024Y-16591071D01*
X9301548Y-16629167D01*
X9301548Y-16676786D01*
X9292024Y-16714881D01*
X9282500Y-16733928D01*
X9272976Y-16743452D01*
X9253929Y-16752976D01*
X9234881Y-16752976D01*
X9215833Y-16743452D01*
X9206310Y-16733928D01*
X9196786Y-16714881D01*
X9187262Y-16676786D01*
X9187262Y-16629167D01*
X9196786Y-16591071D01*
X9206310Y-16572024D01*
X9215833Y-16562500D01*
X9234881Y-16552976D01*
X9387262Y-16752976D02*
X9387262Y-16619643D01*
X9387262Y-16638690D02*
X9396786Y-16629167D01*
X9415833Y-16619643D01*
X9444405Y-16619643D01*
X9463452Y-16629167D01*
X9472976Y-16648214D01*
X9472976Y-16752976D01*
X9472976Y-16648214D02*
X9482500Y-16629167D01*
X9501548Y-16619643D01*
X9530119Y-16619643D01*
X9549167Y-16629167D01*
X9558690Y-16648214D01*
X9558690Y-16752976D01*
X9653929Y-16752976D02*
X9653929Y-16619643D01*
X9653929Y-16638690D02*
X9663452Y-16629167D01*
X9682500Y-16619643D01*
X9711071Y-16619643D01*
X9730119Y-16629167D01*
X9739643Y-16648214D01*
X9739643Y-16752976D01*
X9739643Y-16648214D02*
X9749167Y-16629167D01*
X9768214Y-16619643D01*
X9796786Y-16619643D01*
X9815833Y-16629167D01*
X9825357Y-16648214D01*
X9825357Y-16752976D01*
X10215833Y-16543452D02*
X10044405Y-16800595D01*
X10472976Y-16552976D02*
X10492024Y-16552976D01*
X10511071Y-16562500D01*
X10520595Y-16572024D01*
X10530119Y-16591071D01*
X10539643Y-16629167D01*
X10539643Y-16676786D01*
X10530119Y-16714881D01*
X10520595Y-16733928D01*
X10511071Y-16743452D01*
X10492024Y-16752976D01*
X10472976Y-16752976D01*
X10453929Y-16743452D01*
X10444405Y-16733928D01*
X10434881Y-16714881D01*
X10425357Y-16676786D01*
X10425357Y-16629167D01*
X10434881Y-16591071D01*
X10444405Y-16572024D01*
X10453929Y-16562500D01*
X10472976Y-16552976D01*
X10625357Y-16733928D02*
X10634881Y-16743452D01*
X10625357Y-16752976D01*
X10615833Y-16743452D01*
X10625357Y-16733928D01*
X10625357Y-16752976D01*
X10758690Y-16552976D02*
X10777738Y-16552976D01*
X10796786Y-16562500D01*
X10806310Y-16572024D01*
X10815833Y-16591071D01*
X10825357Y-16629167D01*
X10825357Y-16676786D01*
X10815833Y-16714881D01*
X10806310Y-16733928D01*
X10796786Y-16743452D01*
X10777738Y-16752976D01*
X10758690Y-16752976D01*
X10739643Y-16743452D01*
X10730119Y-16733928D01*
X10720595Y-16714881D01*
X10711071Y-16676786D01*
X10711071Y-16629167D01*
X10720595Y-16591071D01*
X10730119Y-16572024D01*
X10739643Y-16562500D01*
X10758690Y-16552976D01*
X10920595Y-16752976D02*
X10958690Y-16752976D01*
X10977738Y-16743452D01*
X10987262Y-16733928D01*
X11006310Y-16705357D01*
X11015833Y-16667262D01*
X11015833Y-16591071D01*
X11006310Y-16572024D01*
X10996786Y-16562500D01*
X10977738Y-16552976D01*
X10939643Y-16552976D01*
X10920595Y-16562500D01*
X10911071Y-16572024D01*
X10901548Y-16591071D01*
X10901548Y-16638690D01*
X10911071Y-16657738D01*
X10920595Y-16667262D01*
X10939643Y-16676786D01*
X10977738Y-16676786D01*
X10996786Y-16667262D01*
X11006310Y-16657738D01*
X11015833Y-16638690D01*
X11130119Y-16638690D02*
X11111071Y-16629167D01*
X11101548Y-16619643D01*
X11092024Y-16600595D01*
X11092024Y-16591071D01*
X11101548Y-16572024D01*
X11111071Y-16562500D01*
X11130119Y-16552976D01*
X11168214Y-16552976D01*
X11187262Y-16562500D01*
X11196786Y-16572024D01*
X11206309Y-16591071D01*
X11206309Y-16600595D01*
X11196786Y-16619643D01*
X11187262Y-16629167D01*
X11168214Y-16638690D01*
X11130119Y-16638690D01*
X11111071Y-16648214D01*
X11101548Y-16657738D01*
X11092024Y-16676786D01*
X11092024Y-16714881D01*
X11101548Y-16733928D01*
X11111071Y-16743452D01*
X11130119Y-16752976D01*
X11168214Y-16752976D01*
X11187262Y-16743452D01*
X11196786Y-16733928D01*
X11206309Y-16714881D01*
X11206309Y-16676786D01*
X11196786Y-16657738D01*
X11187262Y-16648214D01*
X11168214Y-16638690D01*
X11377738Y-16619643D02*
X11377738Y-16752976D01*
X11330119Y-16543452D02*
X11282500Y-16686309D01*
X11406309Y-16686309D01*
X11472976Y-16552976D02*
X11472976Y-16591071D01*
X11549167Y-16552976D02*
X11549167Y-16591071D01*
X11844405Y-16829167D02*
X11834881Y-16819643D01*
X11815833Y-16791071D01*
X11806309Y-16772024D01*
X11796786Y-16743452D01*
X11787262Y-16695833D01*
X11787262Y-16657738D01*
X11796786Y-16610119D01*
X11806309Y-16581548D01*
X11815833Y-16562500D01*
X11834881Y-16533928D01*
X11844405Y-16524405D01*
X11958690Y-16552976D02*
X11977738Y-16552976D01*
X11996786Y-16562500D01*
X12006309Y-16572024D01*
X12015833Y-16591071D01*
X12025357Y-16629167D01*
X12025357Y-16676786D01*
X12015833Y-16714881D01*
X12006309Y-16733928D01*
X11996786Y-16743452D01*
X11977738Y-16752976D01*
X11958690Y-16752976D01*
X11939643Y-16743452D01*
X11930119Y-16733928D01*
X11920595Y-16714881D01*
X11911071Y-16676786D01*
X11911071Y-16629167D01*
X11920595Y-16591071D01*
X11930119Y-16572024D01*
X11939643Y-16562500D01*
X11958690Y-16552976D01*
X12263452Y-16752976D02*
X12263452Y-16552976D01*
X12349167Y-16752976D02*
X12349167Y-16648214D01*
X12339643Y-16629167D01*
X12320595Y-16619643D01*
X12292024Y-16619643D01*
X12272976Y-16629167D01*
X12263452Y-16638690D01*
X12472976Y-16752976D02*
X12453928Y-16743452D01*
X12444405Y-16733928D01*
X12434881Y-16714881D01*
X12434881Y-16657738D01*
X12444405Y-16638690D01*
X12453928Y-16629167D01*
X12472976Y-16619643D01*
X12501548Y-16619643D01*
X12520595Y-16629167D01*
X12530119Y-16638690D01*
X12539643Y-16657738D01*
X12539643Y-16714881D01*
X12530119Y-16733928D01*
X12520595Y-16743452D01*
X12501548Y-16752976D01*
X12472976Y-16752976D01*
X12653928Y-16752976D02*
X12634881Y-16743452D01*
X12625357Y-16724405D01*
X12625357Y-16552976D01*
X12806309Y-16743452D02*
X12787262Y-16752976D01*
X12749167Y-16752976D01*
X12730119Y-16743452D01*
X12720595Y-16724405D01*
X12720595Y-16648214D01*
X12730119Y-16629167D01*
X12749167Y-16619643D01*
X12787262Y-16619643D01*
X12806309Y-16629167D01*
X12815833Y-16648214D01*
X12815833Y-16667262D01*
X12720595Y-16686309D01*
X12892024Y-16743452D02*
X12911071Y-16752976D01*
X12949167Y-16752976D01*
X12968214Y-16743452D01*
X12977738Y-16724405D01*
X12977738Y-16714881D01*
X12968214Y-16695833D01*
X12949167Y-16686309D01*
X12920595Y-16686309D01*
X12901548Y-16676786D01*
X12892024Y-16657738D01*
X12892024Y-16648214D01*
X12901548Y-16629167D01*
X12920595Y-16619643D01*
X12949167Y-16619643D01*
X12968214Y-16629167D01*
X13215833Y-16676786D02*
X13368214Y-16676786D01*
X13292024Y-16752976D02*
X13292024Y-16600595D01*
X13606309Y-16572024D02*
X13615833Y-16562500D01*
X13634881Y-16552976D01*
X13682500Y-16552976D01*
X13701548Y-16562500D01*
X13711071Y-16572024D01*
X13720595Y-16591071D01*
X13720595Y-16610119D01*
X13711071Y-16638690D01*
X13596786Y-16752976D01*
X13720595Y-16752976D01*
X13949167Y-16743452D02*
X13968214Y-16752976D01*
X14006309Y-16752976D01*
X14025357Y-16743452D01*
X14034881Y-16724405D01*
X14034881Y-16714881D01*
X14025357Y-16695833D01*
X14006309Y-16686309D01*
X13977738Y-16686309D01*
X13958690Y-16676786D01*
X13949167Y-16657738D01*
X13949167Y-16648214D01*
X13958690Y-16629167D01*
X13977738Y-16619643D01*
X14006309Y-16619643D01*
X14025357Y-16629167D01*
X14149167Y-16752976D02*
X14130119Y-16743452D01*
X14120595Y-16724405D01*
X14120595Y-16552976D01*
X14253928Y-16752976D02*
X14234881Y-16743452D01*
X14225357Y-16733928D01*
X14215833Y-16714881D01*
X14215833Y-16657738D01*
X14225357Y-16638690D01*
X14234881Y-16629167D01*
X14253928Y-16619643D01*
X14282500Y-16619643D01*
X14301548Y-16629167D01*
X14311071Y-16638690D01*
X14320595Y-16657738D01*
X14320595Y-16714881D01*
X14311071Y-16733928D01*
X14301548Y-16743452D01*
X14282500Y-16752976D01*
X14253928Y-16752976D01*
X14377738Y-16619643D02*
X14453928Y-16619643D01*
X14406309Y-16552976D02*
X14406309Y-16724405D01*
X14415833Y-16743452D01*
X14434881Y-16752976D01*
X14453928Y-16752976D01*
X14511071Y-16743452D02*
X14530119Y-16752976D01*
X14568214Y-16752976D01*
X14587262Y-16743452D01*
X14596786Y-16724405D01*
X14596786Y-16714881D01*
X14587262Y-16695833D01*
X14568214Y-16686309D01*
X14539643Y-16686309D01*
X14520595Y-16676786D01*
X14511071Y-16657738D01*
X14511071Y-16648214D01*
X14520595Y-16629167D01*
X14539643Y-16619643D01*
X14568214Y-16619643D01*
X14587262Y-16629167D01*
X14663452Y-16829167D02*
X14672976Y-16819643D01*
X14692024Y-16791071D01*
X14701548Y-16772024D01*
X14711071Y-16743452D01*
X14720595Y-16695833D01*
X14720595Y-16657738D01*
X14711071Y-16610119D01*
X14701548Y-16581548D01*
X14692024Y-16562500D01*
X14672976Y-16533928D01*
X14663452Y-16524405D01*
X15025357Y-16829167D02*
X15015833Y-16819643D01*
X14996786Y-16791071D01*
X14987262Y-16772024D01*
X14977738Y-16743452D01*
X14968214Y-16695833D01*
X14968214Y-16657738D01*
X14977738Y-16610119D01*
X14987262Y-16581548D01*
X14996786Y-16562500D01*
X15015833Y-16533928D01*
X15025357Y-16524405D01*
X15101548Y-16619643D02*
X15101548Y-16752976D01*
X15101548Y-16638690D02*
X15111071Y-16629167D01*
X15130119Y-16619643D01*
X15158690Y-16619643D01*
X15177738Y-16629167D01*
X15187262Y-16648214D01*
X15187262Y-16752976D01*
X15311071Y-16752976D02*
X15292024Y-16743452D01*
X15282500Y-16733928D01*
X15272976Y-16714881D01*
X15272976Y-16657738D01*
X15282500Y-16638690D01*
X15292024Y-16629167D01*
X15311071Y-16619643D01*
X15339643Y-16619643D01*
X15358690Y-16629167D01*
X15368214Y-16638690D01*
X15377738Y-16657738D01*
X15377738Y-16714881D01*
X15368214Y-16733928D01*
X15358690Y-16743452D01*
X15339643Y-16752976D01*
X15311071Y-16752976D01*
X15434881Y-16619643D02*
X15511071Y-16619643D01*
X15463452Y-16552976D02*
X15463452Y-16724405D01*
X15472976Y-16743452D01*
X15492024Y-16752976D01*
X15511071Y-16752976D01*
X15730119Y-16619643D02*
X15730119Y-16819643D01*
X15730119Y-16629167D02*
X15749167Y-16619643D01*
X15787262Y-16619643D01*
X15806309Y-16629167D01*
X15815833Y-16638690D01*
X15825357Y-16657738D01*
X15825357Y-16714881D01*
X15815833Y-16733928D01*
X15806309Y-16743452D01*
X15787262Y-16752976D01*
X15749167Y-16752976D01*
X15730119Y-16743452D01*
X15939643Y-16752976D02*
X15920595Y-16743452D01*
X15911071Y-16724405D01*
X15911071Y-16552976D01*
X16101548Y-16752976D02*
X16101548Y-16648214D01*
X16092024Y-16629167D01*
X16072976Y-16619643D01*
X16034881Y-16619643D01*
X16015833Y-16629167D01*
X16101548Y-16743452D02*
X16082500Y-16752976D01*
X16034881Y-16752976D01*
X16015833Y-16743452D01*
X16006309Y-16724405D01*
X16006309Y-16705357D01*
X16015833Y-16686309D01*
X16034881Y-16676786D01*
X16082500Y-16676786D01*
X16101548Y-16667262D01*
X16168214Y-16619643D02*
X16244405Y-16619643D01*
X16196786Y-16552976D02*
X16196786Y-16724405D01*
X16206309Y-16743452D01*
X16225357Y-16752976D01*
X16244405Y-16752976D01*
X16387262Y-16743452D02*
X16368214Y-16752976D01*
X16330119Y-16752976D01*
X16311071Y-16743452D01*
X16301548Y-16724405D01*
X16301548Y-16648214D01*
X16311071Y-16629167D01*
X16330119Y-16619643D01*
X16368214Y-16619643D01*
X16387262Y-16629167D01*
X16396786Y-16648214D01*
X16396786Y-16667262D01*
X16301548Y-16686309D01*
X16568214Y-16752976D02*
X16568214Y-16552976D01*
X16568214Y-16743452D02*
X16549167Y-16752976D01*
X16511071Y-16752976D01*
X16492024Y-16743452D01*
X16482500Y-16733928D01*
X16472976Y-16714881D01*
X16472976Y-16657738D01*
X16482500Y-16638690D01*
X16492024Y-16629167D01*
X16511071Y-16619643D01*
X16549167Y-16619643D01*
X16568214Y-16629167D01*
X16644405Y-16829167D02*
X16653928Y-16819643D01*
X16672976Y-16791071D01*
X16682500Y-16772024D01*
X16692024Y-16743452D01*
X16701548Y-16695833D01*
X16701548Y-16657738D01*
X16692024Y-16610119D01*
X16682500Y-16581548D01*
X16672976Y-16562500D01*
X16653928Y-16533928D01*
X16644405Y-16524405D01*
X8272500Y-16982500D02*
G75*
G03*
X8272500Y-16982500I-100000J0D01*
G01*
X8511071Y-16872976D02*
X8634881Y-16872976D01*
X8568214Y-16949167D01*
X8596786Y-16949167D01*
X8615833Y-16958690D01*
X8625357Y-16968214D01*
X8634881Y-16987262D01*
X8634881Y-17034881D01*
X8625357Y-17053929D01*
X8615833Y-17063452D01*
X8596786Y-17072976D01*
X8539643Y-17072976D01*
X8520595Y-17063452D01*
X8511071Y-17053929D01*
X8720595Y-17053929D02*
X8730119Y-17063452D01*
X8720595Y-17072976D01*
X8711071Y-17063452D01*
X8720595Y-17053929D01*
X8720595Y-17072976D01*
X8806310Y-16892024D02*
X8815833Y-16882500D01*
X8834881Y-16872976D01*
X8882500Y-16872976D01*
X8901548Y-16882500D01*
X8911071Y-16892024D01*
X8920595Y-16911071D01*
X8920595Y-16930119D01*
X8911071Y-16958690D01*
X8796786Y-17072976D01*
X8920595Y-17072976D01*
X9044405Y-16872976D02*
X9063452Y-16872976D01*
X9082500Y-16882500D01*
X9092024Y-16892024D01*
X9101548Y-16911071D01*
X9111071Y-16949167D01*
X9111071Y-16996786D01*
X9101548Y-17034881D01*
X9092024Y-17053929D01*
X9082500Y-17063452D01*
X9063452Y-17072976D01*
X9044405Y-17072976D01*
X9025357Y-17063452D01*
X9015833Y-17053929D01*
X9006310Y-17034881D01*
X8996786Y-16996786D01*
X8996786Y-16949167D01*
X9006310Y-16911071D01*
X9015833Y-16892024D01*
X9025357Y-16882500D01*
X9044405Y-16872976D01*
X9234881Y-16872976D02*
X9253929Y-16872976D01*
X9272976Y-16882500D01*
X9282500Y-16892024D01*
X9292024Y-16911071D01*
X9301548Y-16949167D01*
X9301548Y-16996786D01*
X9292024Y-17034881D01*
X9282500Y-17053929D01*
X9272976Y-17063452D01*
X9253929Y-17072976D01*
X9234881Y-17072976D01*
X9215833Y-17063452D01*
X9206310Y-17053929D01*
X9196786Y-17034881D01*
X9187262Y-16996786D01*
X9187262Y-16949167D01*
X9196786Y-16911071D01*
X9206310Y-16892024D01*
X9215833Y-16882500D01*
X9234881Y-16872976D01*
X9387262Y-17072976D02*
X9387262Y-16939643D01*
X9387262Y-16958690D02*
X9396786Y-16949167D01*
X9415833Y-16939643D01*
X9444405Y-16939643D01*
X9463452Y-16949167D01*
X9472976Y-16968214D01*
X9472976Y-17072976D01*
X9472976Y-16968214D02*
X9482500Y-16949167D01*
X9501548Y-16939643D01*
X9530119Y-16939643D01*
X9549167Y-16949167D01*
X9558690Y-16968214D01*
X9558690Y-17072976D01*
X9653929Y-17072976D02*
X9653929Y-16939643D01*
X9653929Y-16958690D02*
X9663452Y-16949167D01*
X9682500Y-16939643D01*
X9711071Y-16939643D01*
X9730119Y-16949167D01*
X9739643Y-16968214D01*
X9739643Y-17072976D01*
X9739643Y-16968214D02*
X9749167Y-16949167D01*
X9768214Y-16939643D01*
X9796786Y-16939643D01*
X9815833Y-16949167D01*
X9825357Y-16968214D01*
X9825357Y-17072976D01*
X10215833Y-16863452D02*
X10044405Y-17120595D01*
X10472976Y-16872976D02*
X10492024Y-16872976D01*
X10511071Y-16882500D01*
X10520595Y-16892024D01*
X10530119Y-16911071D01*
X10539643Y-16949167D01*
X10539643Y-16996786D01*
X10530119Y-17034881D01*
X10520595Y-17053929D01*
X10511071Y-17063452D01*
X10492024Y-17072976D01*
X10472976Y-17072976D01*
X10453929Y-17063452D01*
X10444405Y-17053929D01*
X10434881Y-17034881D01*
X10425357Y-16996786D01*
X10425357Y-16949167D01*
X10434881Y-16911071D01*
X10444405Y-16892024D01*
X10453929Y-16882500D01*
X10472976Y-16872976D01*
X10625357Y-17053929D02*
X10634881Y-17063452D01*
X10625357Y-17072976D01*
X10615833Y-17063452D01*
X10625357Y-17053929D01*
X10625357Y-17072976D01*
X10825357Y-17072976D02*
X10711071Y-17072976D01*
X10768214Y-17072976D02*
X10768214Y-16872976D01*
X10749167Y-16901548D01*
X10730119Y-16920595D01*
X10711071Y-16930119D01*
X10901548Y-16892024D02*
X10911071Y-16882500D01*
X10930119Y-16872976D01*
X10977738Y-16872976D01*
X10996786Y-16882500D01*
X11006310Y-16892024D01*
X11015833Y-16911071D01*
X11015833Y-16930119D01*
X11006310Y-16958690D01*
X10892024Y-17072976D01*
X11015833Y-17072976D01*
X11187262Y-16872976D02*
X11149167Y-16872976D01*
X11130119Y-16882500D01*
X11120595Y-16892024D01*
X11101548Y-16920595D01*
X11092024Y-16958690D01*
X11092024Y-17034881D01*
X11101548Y-17053929D01*
X11111071Y-17063452D01*
X11130119Y-17072976D01*
X11168214Y-17072976D01*
X11187262Y-17063452D01*
X11196786Y-17053929D01*
X11206309Y-17034881D01*
X11206309Y-16987262D01*
X11196786Y-16968214D01*
X11187262Y-16958690D01*
X11168214Y-16949167D01*
X11130119Y-16949167D01*
X11111071Y-16958690D01*
X11101548Y-16968214D01*
X11092024Y-16987262D01*
X11330119Y-16872976D02*
X11349167Y-16872976D01*
X11368214Y-16882500D01*
X11377738Y-16892024D01*
X11387262Y-16911071D01*
X11396786Y-16949167D01*
X11396786Y-16996786D01*
X11387262Y-17034881D01*
X11377738Y-17053929D01*
X11368214Y-17063452D01*
X11349167Y-17072976D01*
X11330119Y-17072976D01*
X11311071Y-17063452D01*
X11301548Y-17053929D01*
X11292024Y-17034881D01*
X11282500Y-16996786D01*
X11282500Y-16949167D01*
X11292024Y-16911071D01*
X11301548Y-16892024D01*
X11311071Y-16882500D01*
X11330119Y-16872976D01*
X11472976Y-16872976D02*
X11472976Y-16911071D01*
X11549167Y-16872976D02*
X11549167Y-16911071D01*
X11844405Y-17149167D02*
X11834881Y-17139643D01*
X11815833Y-17111071D01*
X11806309Y-17092024D01*
X11796786Y-17063452D01*
X11787262Y-17015833D01*
X11787262Y-16977738D01*
X11796786Y-16930119D01*
X11806309Y-16901548D01*
X11815833Y-16882500D01*
X11834881Y-16853929D01*
X11844405Y-16844405D01*
X11901548Y-16872976D02*
X12025357Y-16872976D01*
X11958690Y-16949167D01*
X11987262Y-16949167D01*
X12006309Y-16958690D01*
X12015833Y-16968214D01*
X12025357Y-16987262D01*
X12025357Y-17034881D01*
X12015833Y-17053929D01*
X12006309Y-17063452D01*
X11987262Y-17072976D01*
X11930119Y-17072976D01*
X11911071Y-17063452D01*
X11901548Y-17053929D01*
X12263452Y-17072976D02*
X12263452Y-16872976D01*
X12349167Y-17072976D02*
X12349167Y-16968214D01*
X12339643Y-16949167D01*
X12320595Y-16939643D01*
X12292024Y-16939643D01*
X12272976Y-16949167D01*
X12263452Y-16958690D01*
X12472976Y-17072976D02*
X12453928Y-17063452D01*
X12444405Y-17053929D01*
X12434881Y-17034881D01*
X12434881Y-16977738D01*
X12444405Y-16958690D01*
X12453928Y-16949167D01*
X12472976Y-16939643D01*
X12501548Y-16939643D01*
X12520595Y-16949167D01*
X12530119Y-16958690D01*
X12539643Y-16977738D01*
X12539643Y-17034881D01*
X12530119Y-17053929D01*
X12520595Y-17063452D01*
X12501548Y-17072976D01*
X12472976Y-17072976D01*
X12653928Y-17072976D02*
X12634881Y-17063452D01*
X12625357Y-17044405D01*
X12625357Y-16872976D01*
X12806309Y-17063452D02*
X12787262Y-17072976D01*
X12749167Y-17072976D01*
X12730119Y-17063452D01*
X12720595Y-17044405D01*
X12720595Y-16968214D01*
X12730119Y-16949167D01*
X12749167Y-16939643D01*
X12787262Y-16939643D01*
X12806309Y-16949167D01*
X12815833Y-16968214D01*
X12815833Y-16987262D01*
X12720595Y-17006310D01*
X12892024Y-17063452D02*
X12911071Y-17072976D01*
X12949167Y-17072976D01*
X12968214Y-17063452D01*
X12977738Y-17044405D01*
X12977738Y-17034881D01*
X12968214Y-17015833D01*
X12949167Y-17006310D01*
X12920595Y-17006310D01*
X12901548Y-16996786D01*
X12892024Y-16977738D01*
X12892024Y-16968214D01*
X12901548Y-16949167D01*
X12920595Y-16939643D01*
X12949167Y-16939643D01*
X12968214Y-16949167D01*
X13044405Y-17149167D02*
X13053928Y-17139643D01*
X13072976Y-17111071D01*
X13082500Y-17092024D01*
X13092024Y-17063452D01*
X13101548Y-17015833D01*
X13101548Y-16977738D01*
X13092024Y-16930119D01*
X13082500Y-16901548D01*
X13072976Y-16882500D01*
X13053928Y-16853929D01*
X13044405Y-16844405D01*
X13406309Y-17149167D02*
X13396786Y-17139643D01*
X13377738Y-17111071D01*
X13368214Y-17092024D01*
X13358690Y-17063452D01*
X13349167Y-17015833D01*
X13349167Y-16977738D01*
X13358690Y-16930119D01*
X13368214Y-16901548D01*
X13377738Y-16882500D01*
X13396786Y-16853929D01*
X13406309Y-16844405D01*
X13482500Y-16939643D02*
X13482500Y-17072976D01*
X13482500Y-16958690D02*
X13492024Y-16949167D01*
X13511071Y-16939643D01*
X13539643Y-16939643D01*
X13558690Y-16949167D01*
X13568214Y-16968214D01*
X13568214Y-17072976D01*
X13692024Y-17072976D02*
X13672976Y-17063452D01*
X13663452Y-17053929D01*
X13653928Y-17034881D01*
X13653928Y-16977738D01*
X13663452Y-16958690D01*
X13672976Y-16949167D01*
X13692024Y-16939643D01*
X13720595Y-16939643D01*
X13739643Y-16949167D01*
X13749167Y-16958690D01*
X13758690Y-16977738D01*
X13758690Y-17034881D01*
X13749167Y-17053929D01*
X13739643Y-17063452D01*
X13720595Y-17072976D01*
X13692024Y-17072976D01*
X13815833Y-16939643D02*
X13892024Y-16939643D01*
X13844405Y-16872976D02*
X13844405Y-17044405D01*
X13853928Y-17063452D01*
X13872976Y-17072976D01*
X13892024Y-17072976D01*
X14111071Y-16939643D02*
X14111071Y-17139643D01*
X14111071Y-16949167D02*
X14130119Y-16939643D01*
X14168214Y-16939643D01*
X14187262Y-16949167D01*
X14196786Y-16958690D01*
X14206309Y-16977738D01*
X14206309Y-17034881D01*
X14196786Y-17053929D01*
X14187262Y-17063452D01*
X14168214Y-17072976D01*
X14130119Y-17072976D01*
X14111071Y-17063452D01*
X14320595Y-17072976D02*
X14301548Y-17063452D01*
X14292024Y-17044405D01*
X14292024Y-16872976D01*
X14482500Y-17072976D02*
X14482500Y-16968214D01*
X14472976Y-16949167D01*
X14453928Y-16939643D01*
X14415833Y-16939643D01*
X14396786Y-16949167D01*
X14482500Y-17063452D02*
X14463452Y-17072976D01*
X14415833Y-17072976D01*
X14396786Y-17063452D01*
X14387262Y-17044405D01*
X14387262Y-17025357D01*
X14396786Y-17006310D01*
X14415833Y-16996786D01*
X14463452Y-16996786D01*
X14482500Y-16987262D01*
X14549167Y-16939643D02*
X14625357Y-16939643D01*
X14577738Y-16872976D02*
X14577738Y-17044405D01*
X14587262Y-17063452D01*
X14606309Y-17072976D01*
X14625357Y-17072976D01*
X14768214Y-17063452D02*
X14749167Y-17072976D01*
X14711071Y-17072976D01*
X14692024Y-17063452D01*
X14682500Y-17044405D01*
X14682500Y-16968214D01*
X14692024Y-16949167D01*
X14711071Y-16939643D01*
X14749167Y-16939643D01*
X14768214Y-16949167D01*
X14777738Y-16968214D01*
X14777738Y-16987262D01*
X14682500Y-17006310D01*
X14949167Y-17072976D02*
X14949167Y-16872976D01*
X14949167Y-17063452D02*
X14930119Y-17072976D01*
X14892024Y-17072976D01*
X14872976Y-17063452D01*
X14863452Y-17053929D01*
X14853928Y-17034881D01*
X14853928Y-16977738D01*
X14863452Y-16958690D01*
X14872976Y-16949167D01*
X14892024Y-16939643D01*
X14930119Y-16939643D01*
X14949167Y-16949167D01*
X15025357Y-17149167D02*
X15034881Y-17139643D01*
X15053928Y-17111071D01*
X15063452Y-17092024D01*
X15072976Y-17063452D01*
X15082500Y-17015833D01*
X15082500Y-16977738D01*
X15072976Y-16930119D01*
X15063452Y-16901548D01*
X15053928Y-16882500D01*
X15034881Y-16853929D01*
X15025357Y-16844405D01*
M02*
